FFmpeg version SVN-r25716, Copyright (c) 2000-2010 the FFmpeg developers  built on Nov 10 2010 12:23:18 with gcc 4.1.2 20080704 (Red Hat 4.1.2-48)  configuration: --enable-libmp3lame --enable-shared --disable-mmx --arch=x86_64  libavutil     50.33. 0 / 50.33. 0  libavcore      0.12. 1 /  0.12. 1  libavcodec    52.94. 4 / 52.94. 4  libavformat   52.84. 0 / 52.84. 0  libavdevice   52. 2. 2 / 52. 2. 2  libavfilter    1.59. 0 /  1.59. 0  libswscale     0.12. 0 /  0.12. 0Input #0, avi, from '/RAID10/data/converted_video_files/47373.avi':  Duration: 00:00:13.25, start: 0.000000, bitrate: 20978 kb/s    Stream #0.0: Video: msvideo1, rgb555le, 1024x1024, 20 tbr, 20 tbn, 20 tbc[buffer @ 0xbcd9050] w:1024 h:1024 pixfmt:rgb555le[ffsink @ 0xbcd92c0] auto-inserting filter 'auto-inserted scaler 0' between the filter 'src' and the filter 'out'[scale @ 0xbceb250] w:1024 h:1024 fmt:rgb555le -> w:1024 h:1024 fmt:yuv420p flags:0x4Output #0, flv, to '/RAID10/data/converted_video_files/47373.flv':  Metadata:    encoder         : Lavf52.84.0    Stream #0.0: Video: flv, yuv420p, 1024x1024, q=2-31, 600 kb/s, 1k tbn, 24 tbcStream mapping:  Stream #0.0 -> #0.0Press [q] to stop encodingframe=    5 fps=  0 q=4.0 size=     371kB time=0.25 bitrate=12216.4kbits/s    frame=   12 fps= 10 q=23.8 size=     447kB time=0.58 bitrate=6271.4kbits/s    frame=   17 fps= 10 q=31.0 size=     481kB time=0.83 bitrate=4734.4kbits/s    frame=   25 fps= 11 q=24.8 size=     525kB time=1.25 bitrate=3443.3kbits/s    frame=   36 fps= 13 q=31.0 size=     535kB time=1.79 bitrate=2444.6kbits/s    frame=   45 fps= 14 q=31.0 size=     567kB time=2.25 bitrate=2065.6kbits/s    frame=   54 fps= 14 q=31.0 size=     601kB time=2.71 bitrate=1816.5kbits/s    frame=   62 fps= 14 q=31.0 size=     633kB time=3.08 bitrate=1681.0kbits/s    frame=   71 fps= 15 q=31.0 size=     640kB time=3.54 bitrate=1480.9kbits/s    frame=   78 fps= 14 q=31.0 size=     672kB time=3.88 bitrate=1419.7kbits/s    frame=   86 fps= 14 q=31.0 size=     703kB time=4.29 bitrate=1341.9kbits/s    frame=   96 fps= 15 q=31.0 size=     711kB time=4.79 bitrate=1215.1kbits/s    frame=  106 fps= 15 q=31.0 size=     744kB time=5.29 bitrate=1152.4kbits/s    frame=  116 fps= 15 q=31.0 size=     777kB time=5.79 bitrate=1099.3kbits/s    frame=  128 fps= 16 q=31.0 size=     811kB time=6.37 bitrate=1042.9kbits/s    frame=  140 fps= 16 q=31.0 size=     850kB time=7.00 bitrate= 995.1kbits/s    frame=  151 fps= 16 q=29.4 size=     884kB time=7.54 bitrate= 960.7kbits/s    frame=  158 fps= 16 q=27.1 size=     916kB time=7.87 bitrate= 953.3kbits/s    frame=  169 fps= 17 q=24.3 size=     952kB time=8.46 bitrate= 922.4kbits/s    frame=  179 fps= 17 q=24.8 size=     960kB time=8.96 bitrate= 878.2kbits/s    frame=  189 fps= 17 q=23.3 size=     995kB time=9.46 bitrate= 861.7kbits/s    frame=  200 fps= 17 q=26.1 size=    1032kB time=10.00 bitrate= 845.7kbits/s    frame=  211 fps= 17 q=26.7 size=    1069kB time=10.54 bitrate= 831.1kbits/s    frame=  222 fps= 17 q=24.3 size=    1106kB time=11.08 bitrate= 817.8kbits/s    frame=  231 fps= 17 q=26.7 size=    1143kB time=11.54 bitrate= 811.4kbits/s    frame=  241 fps= 17 q=17.3 size=    1180kB time=12.04 bitrate= 802.8kbits/s    frame=  252 fps= 18 q=21.4 size=    1192kB time=12.58 bitrate= 775.9kbits/s    frame=  263 fps= 18 q=21.7 size=    1231kB time=13.12 bitrate= 768.3kbits/s    frame=  265 fps= 18 q=16.0 Lsize=    1260kB time=13.25 bitrate= 778.7kbits/s    video:1255kB audio:0kB global headers:0kB muxing overhead 0.346213%